<?xml version="1.0"?>
<svg xmlns="http://www.w3.org/2000/svg" id="Layer_1" data-name="Layer 1" viewBox="0 0 512 512" width="512" height="512"><title>Broken</title><path d="M479.8,162.371c-13.449-66.66-61.61-109.732-122.7-109.732-32.169,0-67,12.448-101.048,36.062C221.542,64.039,187.34,51.54,154.326,51.54c-61.433,0-109.385,43.54-122.161,110.905C13.449,259.993,72.788,389.458,247.544,458.8c.14.055.28.106.422.154a22.088,22.088,0,0,0,16.048,0c.161-.054.319-.112.476-.176,80.168-32.48,142.352-80.091,179.828-137.688,32.926-50.6,45.532-106.95,35.494-158.659Zm-48.894,149.99C395.264,367.14,335.732,412.6,258.735,443.843a12.513,12.513,0,0,1-2.74.617,12.511,12.511,0,0,1-2.775-.625C87.13,377.851,30.412,256.5,47.882,165.443c5.607-29.565,18.6-54.357,37.583-71.7C104.234,76.6,128.046,67.54,154.326,67.54c30.994,0,63.589,12.593,96.881,37.43a8,8,0,0,0,9.482.062c32.8-23.808,66.143-36.393,96.416-36.393,26.216,0,50.062,9.026,68.962,26.1,19.006,17.171,32.16,41.64,38.042,70.76C473.343,213.105,461.552,265.263,430.907,312.361Z"/><path d="M243.991,252.672l-48.125-37.483,38.1-48.914a8,8,0,0,0-1.395-11.227L208.9,136.614a8,8,0,0,0-11.227,1.395l-38.1,48.914-48.914-38.1a8,8,0,0,0-11.228,1.4L81,173.889a8,8,0,0,0,1.4,11.228l48.914,38.1L93.826,271.339a8,8,0,0,0,1.4,11.227L118.889,301a8,8,0,0,0,11.228-1.4L167.6,251.48l48.125,37.483a8,8,0,0,0,11.227-1.4L245.386,263.9a8,8,0,0,0-1.395-11.228Zm-24.746,18.753L171.12,233.941a8,8,0,0,0-11.227,1.4L122.41,283.462l-11.045-8.6,37.483-48.125a8,8,0,0,0-1.4-11.227l-48.914-38.1,8.6-11.046,48.914,38.1a8,8,0,0,0,11.227-1.4l38.1-48.914,11.046,8.6-38.1,48.914a8,8,0,0,0,1.4,11.227l48.125,37.483Z"/></svg>
